<?xml version="1.0" encoding="UTF-8"?>
<svg id="Layer_1" data-name="Layer 1" xmlns="http://www.w3.org/2000/svg" viewBox="0 0 354.08 198.76">
  <defs>
    <style>
      .cls-1 {
        fill: #fefefe;
      }
    </style>
  </defs>
  <path class="cls-1" d="M350.46,20.36c-.89,16.79-.57,33.8.95,51.03-4.29.16-8.6.38-12.94.66-.16.51-.41.48-.75,0-1.17.58-2.58.59-3.74,0-.16.51-.42.48-.75,0-2.51-.24-5-.49-7.49-.75-2.9-.02-2.78-7.14-1.7-8.97-.76-20.24-.45-40.47.95-60.7.31-.58,1.31-1.08,3-1.5,3.09-.07,22.25-.39,23.26.33,1.53,1.07-.69,16.67-.8,19.9Z"/>
  <path class="cls-1" d="M156.48,6.87c3.51,6.77,1.76,14.18,2.22,21.38.31,4.95,1.41,10.77,1.56,15.67.13,4.24.56,28.4-.4,30.38-1.21,2.49-9.13,1.35-11.98,1.5-4.6.25-9.06,1.22-13.84-.03,1.08-7.67.7-15.45.73-23.2l.41-24.97-.73-.73.29-18.4,1.53-.85c.1,0,.82-.75,1.81-.78,4.95-.16,13.88-.64,18.41.03Z"/>
  <path class="cls-1" d="M192.43,6.87c7.51.24,15.27.19,22.75-.49l1.87.62c.31.68.05,1.42.1,2.12-.29,3.31-.51,6.62-.66,9.93l-.84.19.75.06c-.29,11.03-.54,22-.75,32.91.17,6.43-.08,12.8-.75,19.1.05,1.23.34,3.12-1.23,3.64-3.95,1.33-14.24-.74-18.96.06-2.07-11.48-1.37-23.21-3.06-34.77l.78-33.37Z"/>
  <path class="cls-1" d="M307.77,1.63c3.44-.08,8.82-.46,11.98,0l1.08,1.5c-.42,16.8-.7,33.76-.86,50.86,1.77,5.46,1.89,11.35.77,16.91-8.3-.32-16.37-.18-24.21.4-20.46.16-40.66.11-61.07,1.47-5.79.39-11.55,2.34-17.57,1.53-1.3-13.17,1.42-29.57,1.5-43.45,2.16-3.71-.75-22.83,1.66-24.57l38.78-2.4c13.25-.39,26.64-1.64,39.69-2.25,2.73-.13,5.51.06,8.24,0Z"/>
  <path class="cls-1" d="M350.46,125.24c1.21,2.77,1.99,6.38,2.24,9.38,1.55,19.22,1.81,39.1.76,58.05h-4.49c-1.99,0-4.01-.08-5.99,0-2.2.53-4.45.78-6.74.75-1.78.16-4.77,1.14-5.99,0l-.75-4.5c-.35-11.01,1.84-23.11,2.28-34.06.4-9.94-1.08-19.89-.03-29.62,6.1-.3,12.57,0,18.72,0Z"/>
  <path class="cls-1" d="M327.24,125.24c.77,12.58.27,25.32-1.5,38.21-.02.5.03,1,0,1.5-.45,9.57-.58,19.17-.4,28.81l-7.84,1.16c-.75.03-1.5-.03-2.25,0-8.74.22-17.48.72-26.21,1.5-2.79.43-5.54.43-8.24,0-1.33.51-3.24.63-4.49,0-8.31.21-16.54.71-24.72,1.5-.71.58-1.49.56-2.25,0-8.54,1.35-16.78,1.1-24.72-.75-2.38-2.3-2.27-7.38,0-9.74,1.46-15.75,1.46-31.48,0-47.2-2.73.08-2.71-10.88-2.01-11.5,7.26-.34,14.42-.51,21.48-.49,23.38-.26,46.69-1.04,69.93-2.33l3.47-.67c2.43-.04,7.82-.47,9.74,0Z"/>
  <path class="cls-1" d="M132.51,6.87c1.26,6.33.88,13.68.75,20.23-.78,2.59-1.4,6.64-1.53,9.33-.52,11.27-.13,22.45-.79,33.74-.12,2.02,1.78,4.08-.24,5.69-15.55,3.11-31.5,1.99-47.28,2.15l-10.83,1.53c-3.86.06-7.74-.07-11.6,0l-11.62,1.49c-.25,0-.5,0-.75,0-6.23.01-12.5-.01-18.73,0,.13-16.38,1-32.7.72-49.11-.13-7.32-2.01-13.33-.72-20.57l49.04-.18c6.42-.36,13.05-1.09,19.46-1.35s13.69,1.32,19.13-1.47c5.12-.25,8.17-.95,12.73-1.5.72-.09,1.51.03,2.25,0Z"/>
  <path class="cls-1" d="M.69,24.1c-.16-3.67.54-7.44-.61-11.05-.28-.6.71-1.69.98-1.69h24.34l.75,69.67c-.48.06-1.01-.02-1.5,0-1.49.06-3-.01-4.49,0l-14.98.75c-1.46-.06-4.61.6-5.19-1.23.9-4.34.65-8.63.69-13l1.5-24.72c.04-3.92.21-8.09,0-11.99l-1.5-6.74Z"/>
  <path class="cls-1" d="M217.14,128.24c2.37.25,3.59,1.31,3.74,3.75,1.31,21.51-.98,44.29,0,65.93l-25.47.74c1.56-21.55,3.55-43.13.58-64.63-.15-1.12-.71-2.23-1.31-3.18,1.06-1.77,3.02-.84,4.47-1.12,1.82.03,3.57-.22,5.24-.75.74-.08,1.51.06,2.25,0l3.74-.75c2.11-.08,4.66-.16,6.74,0Z"/>
</svg>